<svg xmlns="http://www.w3.org/2000/svg" xmlns:svg="http://www.w3.org/2000/svg" id="svg2" width="1000" height="1000" version="1.1" viewBox="0 0 1000 1000"><metadata id="metadata7"/><g id="layer2"><path style="opacity:1;fill:#000;fill-opacity:1;stroke:#000;stroke-width:1.49300182;stroke-opacity:1" id="path4225" d="M 229.80982,10.297095 A 198.6273,196.41757 0 0 0 31.182869,206.71507 198.6273,196.41757 0 0 0 95.024666,350.65452 427.27457,441.63766 0 0 1 377.86256,76.134985 198.6273,196.41757 0 0 0 229.80982,10.297095 Z"/><path style="fill:none;fill-rule:evenodd;stroke:#000;stroke-width:1px;stroke-linecap:butt;stroke-linejoin:miter;stroke-opacity:1" id="path4192" d="m 3188.5779,754.84358 c -202.4714,-254.09012 143.6468,-462.03131 301.6253,-268.47961 67.5602,-19.27112 138.6853,-17.15253 212.132,-1.10485 170.3033,-196.47168 499.3443,30.67145 300.5204,271.79417"/><circle style="opacity:1;fill:#000;fill-opacity:1;stroke:#000;stroke-width:1.18611968;stroke-opacity:1" id="path4198" cx="498.499" cy="501.92" r="55.15"/><path style="opacity:1;fill:#000;fill-opacity:1;stroke:#000;stroke-width:2.62047124;stroke-opacity:1" id="path4202" d="M 759.375,7.9726562 C 702.44397,8.0366835 646.34589,31.175028 608.75368,73.424443 595.22659,69.657849 582.92926,61.248445 492.69118,60.102177 379.081,60.102243 276.75241,107.17272 196.41797,188.99023 116.08353,270.80775 70.952943,381.7751 70.953125,497.48242 c 3.26e-4,115.70698 45.132405,226.67509 125.466795,308.49219 80.33439,81.81709 189.29054,127.78118 302.90039,127.78125 113.60985,-6e-5 222.566,-45.96415 302.90039,-127.78125 80.33438,-81.8171 125.46647,-192.78521 125.4668,-308.49219 -0.1698,-52.96368 -9.80746,-105.45325 -28.44141,-154.90039 37.33818,-36.72268 58.35299,-86.61881 58.40625,-138.67578 C 957.65191,95.69529 868.88037,7.973082 759.375,7.9726562 Z M 499.35547,129.26758 c 205.16765,3.4e-4 371.48862,166.9614 371.48828,372.91797 -7.4e-4,205.9558 -166.32139,372.91567 -371.48828,372.91601 -205.16765,7.5e-4 -371.4895,-166.95944 -371.49024,-372.91601 -3.4e-4,-205.95734 166.32183,-372.91872 371.49024,-372.91797 z"/><path style="fill:#000;fill-rule:evenodd;stroke:#000;stroke-width:1px;stroke-linecap:butt;stroke-linejoin:miter;stroke-opacity:1" id="path4213" d="m 530.33009,456.41166 106.06602,-88.94078 66.29126,-56.89999 c 17.23985,-8.99663 35.89509,3.36417 22.09708,23.75436 L 550.76989,480.71846 Z"/><path style="fill:#000;fill-rule:evenodd;stroke:#000;stroke-width:1px;stroke-linecap:butt;stroke-linejoin:miter;stroke-opacity:1" id="path4215" d="m 390.01359,467.4602 c 6.34258,-18.85933 18.27235,-33.52825 30.38349,-48.06116 L 303.83495,345.3738 c -32.28761,-20.50493 -64.42155,28.72792 -35.90777,46.40388 z"/></g></svg>